<?xml version="1.0" encoding="UTF-8"?>
<svg version="1.1" xmlns="http://www.w3.org/2000/svg" width="512" height="512">
<path d="M0 0 C1.18239258 0.01353516 1.18239258 0.01353516 2.38867188 0.02734375 C13.64669258 0.35982016 22.34109995 4.27283723 30.1875 12.4375 C33.62411185 16.70566014 36.55828536 21.33059316 39.53857422 25.921875 C42.72705782 30.78627166 46.03274674 35.57190674 49.3125 40.375 C50.7713897 42.52175743 52.2297147 44.66889871 53.6875 46.81640625 C56.34013516 50.72173909 58.99604032 54.6247688 61.6579895 58.52375793 C62.80490324 60.20371629 63.95112771 61.88414294 65.09716797 63.56469727 C66.52715712 65.66114268 67.95838293 67.75674535 69.39111328 69.85131836 C88.81073363 98.34279126 88.81073363 98.34279126 85.7265625 116.08984375 C81.81534026 130.65339481 72.18158407 138.37912762 60.4296875 146.8984375 C59.59590576 147.50461914 58.76212402 148.11080078 57.90307617 148.73535156 C56.26010231 149.92279882 54.60956211 151.09987116 52.95043945 152.26464844 C46.03907702 157.21809133 37.98948048 163.68274526 36.1875 172.4375 C33.92271964 191.90443228 43.43180679 210.99007013 55 226.125 C64.29826224 237.54036315 73.91271369 248.47384067 84.34765625 258.86328125 C85.47029584 259.98727497 86.59263902 261.11156482 87.71470642 262.23612976 C90.04168974 264.56602564 92.37215759 266.89235914 94.70532227 269.21606445 C97.66579529 272.16510511 100.61713851 275.12309452 103.56592655 278.08381367 C105.87281944 280.3979968 108.18453235 282.70731825 110.49764824 285.01527977 C111.58693765 286.10325449 112.67479803 287.19266227 113.76106453 288.28365517 C133.14210959 307.73058676 158.6372763 329.87164572 187.5625 331.0625 C196.42266188 330.6602225 202.35136237 327.70015271 208.4375 321.3125 C213.31184227 315.55191369 217.72844022 309.42105816 222.13964844 303.30224609 C230.44076198 291.80494398 238.54484818 283.04450032 253.1875 280.4375 C270.08987745 278.82347987 282.11554429 286.52408246 295.26171875 296.3046875 C298.38895757 298.58435692 301.58413221 300.74294224 304.8125 302.875 C315.00993047 309.62252668 325.11648757 316.50192459 335.20556641 323.41015625 C337.8873229 325.23341693 340.58537402 327.0279612 343.29296875 328.8125 C354.26053667 336.1300408 363.31516693 343.92779784 366.1875 357.4375 C366.33960938 358.14261719 366.49171875 358.84773438 366.6484375 359.57421875 C368.28484643 369.70177178 365.85456929 379.96142884 360.1875 388.4375 C356.44843368 393.33072428 352.35193548 397.90585979 348.1875 402.4375 C347.43210937 403.26507813 346.67671875 404.09265625 345.8984375 404.9453125 C338.16115578 413.03033722 328.81888317 420.70421489 319.1875 426.4375 C315.4375 426.375 315.4375 426.375 312.1875 425.4375 C310.1875 422.4375 310.1875 422.4375 310.22265625 419.0234375 C311.42697045 414.54748433 312.81341567 413.59708219 316.625 411.0625 C321.85341032 407.43131288 326.49401009 403.57124415 331.12890625 399.1875 C333.1875 397.4375 333.1875 397.4375 336.1875 396.4375 C337.23771103 394.58778304 337.23771103 394.58778304 338.1875 392.4375 C339.17129259 391.09216364 340.16944469 389.75709887 341.1875 388.4375 C340.61008057 388.07100342 340.03266113 387.70450684 339.43774414 387.3269043 C320.01103483 374.99208867 320.01103483 374.99208867 310.875 369.0625 C299.68139627 361.79878184 288.43041197 354.6245515 277.1875 347.4375 C272.85382955 344.66719345 268.52047395 341.89639581 264.1875 339.125 C263.14932129 338.46121338 262.11114258 337.79742676 261.04150391 337.11352539 C256.38120773 334.13151494 251.72534656 331.14333067 247.0859375 328.12890625 C246.31378906 327.62721924 245.54164063 327.12553223 244.74609375 326.60864258 C243.3542523 325.70279407 241.96350739 324.79525692 240.57421875 323.88549805 C236.52382794 321.24733076 232.40463714 318.80083135 228.1875 316.4375 C227.92582031 317.00597656 227.66414063 317.57445312 227.39453125 318.16015625 C221.72721305 328.8528634 211.92737834 338.52986276 200.5625 342.8125 C182.88862423 348.09026968 164.93628269 341.60241752 149.1875 333.4375 C139.44188791 328.06029577 130.54462563 321.79849765 122.1875 314.4375 C121.31351563 313.67308594 120.43953125 312.90867187 119.5390625 312.12109375 C114.58172216 307.72201246 109.82365146 303.17136893 105.1875 298.4375 C103.52165957 296.7700075 101.8548244 295.10350867 100.1875 293.4375 C99.19852101 292.44861441 98.20959053 291.45968031 97.22070312 290.47070312 C96.69665894 289.94665894 96.17261475 289.42261475 95.63269043 288.88269043 C89.13989258 282.38989258 82.64709473 275.89709473 76.15429688 269.40429688 C75.40279358 268.65306549 75.40279358 268.65306549 74.6361084 267.88665771 C73.25350633 266.50353136 71.87279891 265.11851184 70.4921875 263.73339844 C68.71206264 261.96006218 66.91816118 260.21153349 65.09375 258.484375 C43.93565475 238.1399332 22.69390817 209.74416752 21.6875 179.25 C22.10854388 167.56603237 26.23404845 157.99715975 34.1875 149.4375 C46.29097003 138.4375 46.29097003 138.4375 50.1875 138.4375 C44.8440609 129.32465812 39.2675873 120.39441479 33.48413086 111.55444336 C28.96623707 104.64743487 24.50496035 97.70574359 20.0625 90.75 C15.62225431 83.80064151 11.17633922 76.85558332 6.6875 69.9375 C-2.89869929 55.15985188 -12.36210825 40.30225506 -21.8125 25.4375 C-44.17071158 40.75195904 -59.86556464 68.70763384 -65.5546875 94.84765625 C-75.35094542 152.21615299 -44.20190239 211.90616364 -12.4140625 257.34375 C-5.83525905 266.59946596 1.07009114 275.59137936 8.1875 284.4375 C9.34185547 285.88382812 9.34185547 285.88382812 10.51953125 287.359375 C15.03941585 292.96371527 19.74733302 298.34822834 24.6328125 303.63671875 C25.98296314 305.11692978 27.32836717 306.60230195 28.63012695 308.12524414 C33.6512036 313.99897076 39.0589453 319.46120409 44.5300293 324.91040039 C46.12208966 326.49709946 47.7087299 328.08907742 49.29492188 329.68164062 C54.75287772 335.14348454 60.28594231 340.45197505 66.1875 345.4375 C67.19727342 346.31434603 68.20642731 347.19190622 69.21484375 348.0703125 C77.94399778 355.54574911 86.97581927 362.56760092 96.1875 369.4375 C96.91630371 369.98196777 97.64510742 370.52643555 98.39599609 371.08740234 C113.98911358 382.68316817 130.2295194 393.11074135 147.29638672 402.40380859 C149.15416747 403.41928028 151.00122102 404.45235529 152.84765625 405.48828125 C191.04666976 426.69003965 239.63482312 441.67451692 282.99609375 429.35546875 C284.04925781 429.05253906 285.10242188 428.74960937 286.1875 428.4375 C291.35877072 427.94026243 291.35877072 427.94026243 294.0625 429.5625 C295.69901479 432.29002465 295.51252803 434.31723093 295.1875 437.4375 C292.64748275 441.24752587 291.1038438 441.3221255 286.75 442.5 C285.59628906 442.82097656 284.44257813 443.14195312 283.25390625 443.47265625 C281.90056013 443.80308891 280.54486781 444.12399706 279.1875 444.4375 C278.41615723 444.61990234 277.64481445 444.80230469 276.85009766 444.99023438 C268.41725469 446.76556974 260.01328338 446.83526085 251.4375 446.8125 C250.66637878 446.81195618 249.89525757 446.81141235 249.10076904 446.81085205 C235.79102643 446.76784303 223.14997799 445.61919914 210.1875 442.4375 C209.3315625 442.23382813 208.475625 442.03015625 207.59375 441.8203125 C192.58730281 438.15910099 178.36919957 432.4939344 164.1875 426.4375 C163.4042334 426.10524414 162.6209668 425.77298828 161.81396484 425.43066406 C148.30386393 419.62085957 135.75131441 412.03647933 123.1875 404.4375 C122.30674805 403.90543945 121.42599609 403.37337891 120.51855469 402.82519531 C109.95142495 396.39995562 99.92810254 389.49165639 90.14355469 381.93310547 C88.16728812 380.42204594 86.17053233 378.94332396 84.1640625 377.47265625 C70.98931328 367.79802154 58.80948581 357.11400466 46.85058594 345.98291016 C44.9495313 344.21636937 43.04082695 342.45823906 41.1328125 340.69921875 C39.71316907 339.38321432 38.29389549 338.0668108 36.875 336.75 C36.21701416 336.14430176 35.55902832 335.53860352 34.88110352 334.91455078 C30.92191064 331.22303997 27.27985394 327.38284475 23.77807617 323.25390625 C22.19852948 321.45009545 20.54255004 319.78380334 18.8125 318.125 C15.02114597 314.40150018 11.75250693 310.30931535 8.42578125 306.171875 C6.49308026 303.81080922 4.5030385 301.55632708 2.4375 299.3125 C-42.55663194 249.14047193 -83.90715946 177.08631637 -80.59765625 107.9140625 C-79.40085947 89.4450559 -74.86301052 73.54619389 -65.8125 57.4375 C-65.4510791 56.78620117 -65.0896582 56.13490234 -64.71728516 55.46386719 C-59.84238945 46.75761824 -54.44993307 38.92644587 -47.8125 31.4375 C-46.94625 30.45007813 -46.08 29.46265625 -45.1875 28.4453125 C-33.0519382 14.80040649 -19.51029036 -0.26887566 0 0 Z M-11.8125 15.4375 C-10.24554759 19.94894539 -7.80971487 23.73523105 -5.1875 27.6875 C-4.19451913 29.20260533 -3.20238488 30.71826575 -2.2109375 32.234375 C-1.66920898 33.06130859 -1.12748047 33.88824219 -0.56933594 34.74023438 C2.71625244 39.78458963 5.94795118 44.86350788 9.1875 49.9375 C13.66942287 56.94932151 18.15802502 63.95629085 22.6875 70.9375 C27.91546679 78.99528367 33.08790839 87.08829787 38.26098633 95.18139648 C42.7003739 102.12341906 47.15767263 109.05329758 51.65039062 115.9609375 C54.54746082 120.42158043 57.38111715 124.91927549 60.1875 129.4375 C65.87571605 126.74595232 69.71930636 122.24621827 72.625 116.6875 C74.93369094 103.34839676 70.92233446 94.73930945 63.453125 83.76171875 C62.12218753 81.87741837 60.78344404 79.99861072 59.4375 78.125 C58.0028285 76.09581364 56.56923181 74.06586694 55.13671875 72.03515625 C54.4514209 71.06723145 53.76612305 70.09930664 53.06005859 69.10205078 C50.7335205 65.79151144 48.47635546 62.44089054 46.25 59.0625 C45.4821056 57.90472581 44.71385937 56.74718492 43.9453125 55.58984375 C43.52668945 54.95933105 43.10806641 54.32881836 42.67675781 53.67919922 C42.18530273 52.93943848 41.69384766 52.19967773 41.1875 51.4375 C40.55166992 50.4798877 39.91583984 49.52227539 39.26074219 48.53564453 C37.42827502 45.78360444 35.58919934 43.03631821 33.74386597 40.29290771 C32.66164471 38.67962673 31.58763131 37.06084909 30.51391602 35.44189453 C20.31125137 20.05818998 20.31125137 20.05818998 4.1875 12.4375 C-1.76317331 11.53748713 -6.40142262 13.11846684 -11.8125 15.4375 Z M238.40234375 302.8515625 C236.98479897 304.36915943 236.98479897 304.36915943 237.1875 306.4375 C238.87807721 307.79296957 238.87807721 307.79296957 241.12109375 309.1328125 C241.98516846 309.67574951 242.84924316 310.21868652 243.73950195 310.77807617 C244.69171631 311.36693604 245.64393066 311.9557959 246.625 312.5625 C248.64875645 313.83152275 250.67218126 315.10107451 252.6953125 316.37109375 C253.75911133 317.03608887 254.82291016 317.70108398 255.91894531 318.38623047 C261.30161846 321.76427198 266.65027316 325.19511002 272 328.625 C273.0614624 329.30449707 274.1229248 329.98399414 275.21655273 330.68408203 C281.70940822 334.84204845 288.1893836 339.01921528 294.6574707 343.21557617 C300.98400802 347.31584191 307.33556291 351.37672806 313.6875 355.4375 C321.09306794 360.1725093 328.49487641 364.91290391 335.875 369.6875 C336.53886719 370.11675781 337.20273437 370.54601562 337.88671875 370.98828125 C338.50546875 371.38917969 339.12421875 371.79007812 339.76171875 372.203125 C340.33841309 372.57630859 340.91510742 372.94949219 341.50927734 373.33398438 C342.64830053 374.08294928 343.77867282 374.84520539 344.90087891 375.61914062 C347.77491839 377.77502137 347.77491839 377.77502137 351.1875 378.4375 C354.59421832 369.49486442 354.7664965 363.4095783 351.74609375 354.28125 C347.04979835 345.71257068 338.24388589 340.8158025 330.3125 335.5625 C329.06731499 334.72926469 327.82269486 333.89518465 326.57861328 333.06030273 C324.03039776 331.35103496 321.47986897 329.64530432 318.92773438 327.94189453 C314.33292926 324.87074385 309.76709221 321.75787187 305.20214844 318.64257812 C301.14353054 315.87287123 297.07793287 313.11351859 293.01171875 310.35498047 C291.16414722 309.10058673 289.31774387 307.84447024 287.47265625 306.58642578 C285.00647245 304.90599039 282.53528722 303.23319725 280.0625 301.5625 C279.35851074 301.08047119 278.65452148 300.59844238 277.92919922 300.10180664 C264.19317133 290.86898204 250.28905499 290.50663336 238.40234375 302.8515625 Z " fill="#fff" transform="translate(112.8125,32.5625)"/>
<path d="M0 0 C33.4053804 -0.90284812 61.88504409 11.49191615 86.01171875 34.16015625 C86.60339844 34.67578125 87.19507813 35.19140625 87.8046875 35.72265625 C106.5688997 52.83775716 117.76591241 81.67800697 119.14892578 106.63623047 C120.49330811 138.18702757 111.70212942 167.42652255 90.51171875 191.34765625 C89.01672127 192.95648602 87.51700917 194.56095288 86.01171875 196.16015625 C85.42261719 196.8253125 84.83351563 197.49046875 84.2265625 198.17578125 C65.33930952 218.59892073 35.98097456 229.15496614 8.7421875 230.37890625 C-23.18716211 231.30520826 -52.93280906 219.7246457 -76.24365234 197.94970703 C-97.48053855 177.35773083 -109.52499092 149.65460205 -110.98828125 120.16015625 C-111.02953125 119.40089844 -111.07078125 118.64164062 -111.11328125 117.859375 C-111.8710166 89.68109167 -101.67841693 61.17847492 -82.98828125 40.16015625 C-82.32570313 39.34289062 -81.663125 38.525625 -80.98046875 37.68359375 C-63.05681524 16.2161 -35.35410401 3.79913389 -7.98828125 0.47265625 C-5.32699949 0.27058801 -2.66512435 0.14283673 0 0 Z M-74.98828125 50.16015625 C-92.51145078 72.35058146 -100.78460664 99.50712815 -97.71582031 127.65966797 C-94.56582245 150.47261281 -84.85174307 169.58434554 -68.98828125 186.16015625 C-68.31410156 186.90910156 -67.63992188 187.65804687 -66.9453125 188.4296875 C-51.84656746 204.60489091 -27.72037459 216.16810503 -5.51171875 217.28466797 C26.88679035 218.18400589 54.12804246 209.05698333 77.82421875 186.72265625 C98.67839627 164.6603022 107.02640471 138.38652815 106.35546875 108.5546875 C105.75111759 93.95744855 101.5528709 81.12907114 95.01171875 68.16015625 C94.48835937 67.1134375 93.965 66.06671875 93.42578125 64.98828125 C80.29057951 40.76825072 57.1488399 23.91981616 31.01171875 16.16015625 C-8.71697575 5.34739816 -48.02821514 20.08172232 -74.98828125 50.16015625 Z " fill="#f4f" transform="translate(350.98828125,34.83984375)"/>
<path d="M0 0 C15.71953009 15.36399952 25.24380276 35.21213059 25.65942383 57.31152344 C25.75486748 80.92700876 16.96670974 101.58673065 0.41796875 118.36328125 C-15.59616375 132.68715348 -35.82280061 139.82051085 -57.1796875 139.578125 C-80.67011788 138.09480276 -99.81590516 127.84639308 -115.83203125 110.99609375 C-131.10232312 93.2801692 -134.89567417 72.0530339 -133.80078125 49.31347656 C-132.59732107 33.08288188 -124.47053306 17.26316564 -113.58203125 5.36328125 C-112.99164063 4.68136719 -112.40125 3.99945313 -111.79296875 3.296875 C-98.96115088 -10.65431422 -79.19475569 -19.15897749 -60.45703125 -20.5703125 C-37.84376893 -21.0926297 -17.23461973 -15.09658823 0 0 Z M-106.83203125 17.05078125 C-117.73416736 31.44518272 -122.92701878 48.37887662 -121.58203125 66.36328125 C-118.52579893 84.77431934 -110.01019652 102.20947652 -94.58203125 113.36328125 C-78.55231479 123.72968713 -60.74954252 129.42158884 -41.55859375 125.6796875 C-29.4309712 122.66653592 -18.97873905 117.61404907 -9.58203125 109.36328125 C-8.56689453 108.48929688 -8.56689453 108.48929688 -7.53125 107.59765625 C3.15803295 97.71785298 11.66537091 82.04223573 12.54077148 67.29443359 C13.24686393 46.43787921 8.96960485 29.00363465 -5.58203125 13.36328125 C-18.44670272 -0.25411036 -35.43436915 -7.50990658 -54.08203125 -8.13671875 C-74.57663545 -7.46865068 -93.43807381 1.39883864 -106.83203125 17.05078125 Z " fill="#fff" transform="translate(409.58203125,90.63671875)"/>
<path d="M0 0 C2.9375 1.0625 2.9375 1.0625 4.8125 3.25 C6.0702103 6.39427576 6.17165726 8.70624597 5.9375 12.0625 C6.783125 12.2275 7.62875 12.3925 8.5 12.5625 C14.02226061 14.97221372 17.40558634 19.39830234 20.375 24.5625 C21.21478252 28.29486674 21.30373469 31.21703577 20.9375 35.0625 C19.3125 37.625 19.3125 37.625 16.9375 39.0625 C13.875 39.125 13.875 39.125 10.9375 38.0625 C8.76935146 35.33223888 7.76874503 32.62960683 6.5 29.375 C5.2404806 26.09704284 5.2404806 26.09704284 3.125 24.5625 C-0.5561812 23.72108715 -3.65868026 24.19116361 -6.875 26.1875 C-8.70891794 29.0831599 -8.88432521 31.67717902 -9.0625 35.0625 C-8.27105191 37.72464358 -7.69011433 38.68480815 -5.31640625 40.11328125 C-2.75290123 41.19288562 -0.4403775 41.55965407 2.3125 41.9375 C10.0909253 43.28217459 14.37380974 46.85081048 18.9375 53.0625 C21.69313586 58.88209462 22.02992214 65.08691309 20.3203125 71.30859375 C17.93805167 76.71611503 13.85294119 80.83264131 8.9375 84.0625 C7.9475 84.0625 6.9575 84.0625 5.9375 84.0625 C5.91171875 84.67738281 5.8859375 85.29226562 5.859375 85.92578125 C5.39936743 92.48088917 5.39936743 92.48088917 3.25 95.1875 C0.08147447 96.38640155 -1.84923186 96.04045117 -5.0625 95.0625 C-7.74177341 91.04358988 -7.21851248 88.82088077 -7.0625 84.0625 C-7.743125 84.02125 -8.42375 83.98 -9.125 83.9375 C-14.2860221 82.40017427 -17.74431713 79.3458481 -20.43359375 74.6875 C-22.68366501 69.58007182 -23.85787172 65.56082588 -22.0625 60.0625 C-20.375 58.0625 -20.375 58.0625 -18.0625 57.0625 C-14.9375 57.1875 -14.9375 57.1875 -12.0625 58.0625 C-9.87281224 61.34703164 -9.0659404 64.23662528 -8.0390625 68.00390625 C-7.21332962 70.19089232 -7.21332962 70.19089232 -5.18359375 71.34765625 C-1.86495407 72.46609283 0.59015931 71.91455036 3.9375 71.0625 C6.75722931 68.69756574 6.91600831 67.2344335 7.375 63.5625 C6.85477712 59.40071696 6.16527734 58.61494337 2.9375 56.0625 C-0.11135234 55.08513402 -0.11135234 55.08513402 -3.4375 54.5625 C-11.07976124 52.97071882 -15.63613883 50.77835833 -20.0625 44.0625 C-22.92854787 38.23199918 -24.13152862 33.05226754 -22.40625 26.61328125 C-20.3097068 20.56764589 -17.61250561 16.39498105 -12.0625 13.0625 C-9.125 12.1875 -9.125 12.1875 -7.0625 12.0625 C-7.18625 10.20625 -7.18625 10.20625 -7.3125 8.3125 C-7.30143379 5.19736285 -7.16304772 4.22105602 -5.4375 1.5 C-3.0625 0.0625 -3.0625 0.0625 0 0 Z " fill="#f4f" transform="translate(356.0625,101.9375)"/>
<path d="M0 0 C2 2 2 2 2.375 5.4375 C2 9 2 9 0.375 11 C-2.81179601 12.34180884 -4.71109893 11.92947204 -8 11 C-10 9 -10 9 -10.375 5.5625 C-10 2 -10 2 -8.375 0 C-5.18820399 -1.34180884 -3.28890107 -0.92947204 0 0 Z " fill="#f4f" transform="translate(420,455)"/>
</svg>
